# xmcd
# Track frame offsets:
# 225
# 14318
# 34800
# 53470
# 68659
# 83379
# 96598
# 111140
# 122545
# 135767
# 149091
# 161008
# 171127
# 185886
# 196288
# 213560
#
# Disc length: 3015 seconds
# Revision: 0
# Processed by: cddbd v1.4PL0 Copyright (c) Steve Scherf et al.
# Submitted via: VisiTrax 2.9.5.180 - For more info visit www.synapsa.com
#
DISCID=dc0bc410
DTITLE=Paddy O'Brien - Share my world
DYEAR=1900
DGENRE=Irsk
TTITLE0=Far side banks of Jordan
TTITLE1=Till I gain control again
TTITLE2=Seven tears
TTITLE3=Precious memories
TTITLE4=I'll go back to Glenmaddy
TTITLE5=I'll remember you love in my prayers
TTITLE6=Going home
TTITLE7=The old Dungarvan road
TTITLE8=My old Kentucky home
TTITLE9=The battle hymn of love
TTITLE10=First of may
TTITLE11=Rushing around
TTITLE12=Oh to be the one
TTITLE13=If we never meet again
TTITLE14=A grown man still can cry
TTITLE15=Traveller's prayer
EXTD=
EXTT0=
EXTT1=
EXTT2=
EXTT3=
EXTT4=
EXTT5=
EXTT6=
EXTT7=
EXTT8=
EXTT9=
EXTT10=
EXTT11=
EXTT12=
EXTT13=
EXTT14=
EXTT15=
PLAYORDER=
